_________________________  Visit us at _________________________
  
http://p2pdl.com  ____________________________  http://p2pdl.com

 
http://www.shotpix.com/images/20038838430957539322.jpg


Gran Torino 2008 BRRip 720p x264 AAC -ViZNU [P2PDL]
				
Genre: Drama
Disgruntled Korean War vet Walt Kowalski sets out to reform his neighbor, a young Hmong teenager, who tried to steal Kowalski's prized possession: his 1972 Gran Torino.
Director: Clint Eastwood
Stars: Clint Eastwood, Bee Vang and Christopher Carley
Rated: Rated R for language throughout, and some violence.

Imdb:  
http://www.imdb.com/title/tt1205489/



General
Complete name                  : Gran Torino 2008 BRRip 720p x264 AAC -ViZNU [P2PDL].mp4
Format                         : MPEG-4
Format profile                 : Base Media / Version 2
Codec ID                       : mp42
File size                      : 668 MiB
Duration                       : 1h 56mn

Video
ID                             : 1
Format                         : AVC
Format/Info                    : Advanced Video Codec
Format profile                 : High@L4.1
Width                          : 1 280 pixels
Height                         : 528 pixels
Display aspect ratio           : 2.40:1
Frame rate mode                : Variable
Frame rate                     : 23.976 fps
Color space                    : YUV
Chroma subsampling             : 4:2:0
Bit depth                      : 8 bits
Scan type                      : Progressive
Bits/(Pixel*Frame)             : 0.043
Stream size                    : 584 MiB (87%)
Writing library                : x264 core 128

Audio
ID                             : 2
Format                         : AAC
Format/Info                    : Advanced Audio Codec
Maximum bit rate               : 139 Kbps
Channel(s)                     : 2 channels
Channel positions              : Front: L R
Sampling rate                  : 48.0 KHz
Stream size                    : 80.0 MiB (12%)
Language                       : English

Subtitle                       : Yes (Multiple Languages, Arabic, Danish, Dutch, English, French, Serbian, Swedish, Turkish)


Screens:
 
http://www.shotpix.com/images/27143851480661507429.jpg 
http://www.shotpix.com/images/05303437407169590564.jpg 
http://www.shotpix.com/images/26807909049282770482.jpg 
http://www.shotpix.com/images/79911928332282655496.jpg 
http://www.shotpix.com/images/57033507966892535413.jpg

Thumbs:
 
http://www.shotpix.com/images/32808569747333093796.jpg

----------------------------------------------------------------------------------------------------


Recommend to you to use latest version of VLC player. Install K-Lite Codec Pack or shark007 codecs
in case of any kind of problem in playback (For non-VLC Media Player users). Alternatively, install
Core AVC codecs, the fastest decoder that there is coupled with Community Center Codec Pack and play
on Windows Media Player Classic. Check sample to be sure.
Enjoy!

Greets to: VYTO, a2zRG, Stumpie1971, Sheychi, TorDigger, Ash968, StyLishSaLH and staff members at
ExtraTorrent, TPB,KAT, 1337x, PublicHD, Ahashare, BTScene, SilverTorrent, LimeTorrents, TorrentMafia,
P2PDL, and all others.

Encoder Notes: Looking For Early Access To Anything You Can Provide DVDScr, R5, DVDR, BluRay, Direct
Audio, Early Music Releases, Seedboxes, Dedicated Servers anything u can provide, Advance / Promo CDs/
DVDs. If You Got anything to offer contact me at "prg@hush.com".

Facebook Fan Page: